<?xml version="1.0" encoding="utf-8"?><svg xmlns="http://www.w3.org/2000/svg" xmlns:xlink="http://www.w3.org/1999/xlink"><symbol viewBox="0 0 512 512" id="chevron" xmlns="http://www.w3.org/2000/svg"><path d="M367.954 213.588L160.67 5.872c-7.804-7.819-20.467-7.831-28.284-.029-7.819 7.802-7.832 20.465-.03 28.284l207.299 207.731c7.798 7.798 7.798 20.486-.015 28.299L132.356 477.873c-7.802 7.819-7.789 20.482.03 28.284A19.935 19.935 0 00146.513 512c5.125 0 10.25-1.958 14.157-5.873l207.269-207.701c23.394-23.394 23.394-61.459.015-84.838z"/></symbol><symbol viewBox="0 0 91 64" id="quote_left" xmlns="http://www.w3.org/2000/svg"><defs><style>.cls-1{fill:#b8b8b8;fill-rule:evenodd}</style></defs><path id="b_" data-name="," class="cls-1" d="M90.834 33.377H72.827q0 9.81 3.755 14.41t14.252 5.442v10.73A58.093 58.093 0 0170.95 60.7a31.739 31.739 0 01-14.406-10.039q-5.4-6.783-5.4-17.284V1.031h39.69v32.346z"/><path id="b_2" data-name="," class="cls-1" d="M39.858 33.377H21.851q0 9.81 3.755 14.41t14.252 5.442v10.73A58.093 58.093 0 0119.974 60.7 31.74 31.74 0 015.568 50.661q-5.4-6.783-5.4-17.284V1.031h39.69v32.346z"/></symbol><symbol viewBox="0 0 92 64" id="quote_right" xmlns="http://www.w3.org/2000/svg"><defs><style>.cls-1{fill:#b8b8b8;fill-rule:evenodd}</style></defs><path id="c_" data-name="," class="cls-1" d="M.911 32.564h18.015q0 9.812-3.756 14.412T.911 52.419v10.732A58.134 58.134 0 0020.8 59.893a31.754 31.754 0 0014.417-10.042q5.4-6.784 5.4-17.287V.213H.911v32.351z"/><path id="c_2" data-name="," class="cls-1" d="M51.911 32.564h18.015q0 9.812-3.756 14.412t-14.259 5.443v10.732A58.134 58.134 0 0071.8 59.893a31.754 31.754 0 0014.417-10.042q5.4-6.784 5.4-17.287V.213H51.911v32.351z"/></symbol></svg>