<svg xmlns="http://www.w3.org/2000/svg" width="91" height="64" viewBox="0 0 91 64">
  <defs>
    <style>
      .cls-1 {
        fill: #b8b8b8;
        fill-rule: evenodd;
      }
    </style>
  </defs>
  <path id="_" data-name="," class="cls-1" d="M90.834,33.377H72.827q0,9.81,3.755,14.41t14.252,5.442V63.959A58.093,58.093,0,0,1,70.95,60.7,31.739,31.739,0,0,1,56.544,50.661q-5.4-6.783-5.4-17.284V1.031H90.834V33.377Z"/>
  <path id="_2" data-name="," class="cls-1" d="M39.858,33.377H21.851q0,9.81,3.755,14.41t14.252,5.442V63.959A58.093,58.093,0,0,1,19.974,60.7,31.74,31.74,0,0,1,5.568,50.661q-5.4-6.783-5.4-17.284V1.031H39.858V33.377Z"/>
</svg>
