<svg xmlns="http://www.w3.org/2000/svg" width="92" height="64" viewBox="0 0 92 64">
  <defs>
    <style>
      .cls-1 {
        fill: #b8b8b8;
        fill-rule: evenodd;
      }
    </style>
  </defs>
  <path id="_" data-name="," class="cls-1" d="M0.911,32.564H18.926q0,9.812-3.756,14.412T0.911,52.419V63.151A58.134,58.134,0,0,0,20.8,59.893,31.754,31.754,0,0,0,35.217,49.851q5.4-6.784,5.4-17.287V0.213H0.911V32.564Z"/>
  <path id="_2" data-name="," class="cls-1" d="M51.911,32.564H69.926q0,9.812-3.756,14.412T51.911,52.419V63.151A58.134,58.134,0,0,0,71.8,59.893,31.754,31.754,0,0,0,86.217,49.851q5.4-6.784,5.4-17.287V0.213H51.911V32.564Z"/>
</svg>
